<svg width="938" height="938" viewBox="0 0 938 938" fill="none" xmlns="http://www.w3.org/2000/svg">
<path d="M0 468.818C62.6726 468.818 122.62 456.901 179.843 433.068C234.341 410.859 284.752 376.734 331.075 330.692C376.308 286.274 410.642 235.899 434.076 179.565C456.965 124.856 468.409 65.0008 468.409 0C468.409 63.3758 480.126 123.231 503.561 179.565C524.815 232.649 559.148 283.024 606.562 330.692C650.16 375.109 700.57 409.234 757.793 433.068C814.471 456.901 874.419 468.818 937.636 468.818C874.419 468.818 814.471 480.735 757.793 504.569C700.57 528.402 650.16 562.528 606.562 606.945C559.148 655.154 524.815 705.529 503.561 758.072C480.126 814.947 468.409 874.802 468.409 937.636C468.409 873.177 456.965 813.322 434.076 758.072C410.642 702.279 376.308 651.904 331.075 606.945C284.752 560.903 234.341 526.777 179.843 504.569C122.62 480.735 62.6726 468.818 0 468.818Z" fill="#FAFAFF"/>
<path d="M157.2 377.504L156.987 377.591L156.774 377.68C152.202 379.584 147.611 381.401 143 383.131V173L371.371 173C351.534 215.079 324.226 253.326 289.036 287.881L288.907 288.008L288.778 288.136C247.462 329.201 203.584 358.602 157.2 377.504Z" fill="#FAFAFF"/>
<path d="M436.758 173C435.882 175.196 434.988 177.385 434.076 179.565C410.642 235.899 376.308 286.274 331.075 330.692C284.752 376.734 234.341 410.859 179.843 433.068C176.711 434.372 173.571 435.641 170.423 436.874C161.35 440.428 152.209 443.685 143 446.646L143 490.991C152.209 493.952 161.35 497.209 170.423 500.762C173.571 501.995 176.711 503.264 179.843 504.569C234.341 526.777 284.752 560.903 331.075 606.945C376.308 651.904 410.642 702.279 434.076 758.072C434.892 760.042 435.694 762.018 436.481 764H501.165C501.949 762.02 502.748 760.044 503.561 758.072C524.815 705.529 559.148 655.154 606.562 606.945C650.16 562.528 700.57 528.402 757.793 504.569C760.873 503.273 763.963 502.013 767.062 500.789C791.409 491.167 816.352 483.717 841.891 478.439C841.964 475.151 842 471.838 842 468.5C842 465.378 841.968 462.278 841.904 459.2C816.361 453.922 791.414 446.471 767.062 436.848C763.963 435.623 760.873 434.363 757.793 433.068C700.57 409.234 650.16 375.109 606.562 330.692C559.148 283.024 524.815 232.649 503.561 179.565C502.653 177.382 501.762 175.194 500.889 173L436.758 173Z" fill="#FAFAFF"/>
<path d="M567.306 175.646C585.412 213.754 612.296 251.377 649.101 288.379L649.242 288.52L649.381 288.662C687.379 327.374 731.081 356.946 780.863 377.68L780.957 377.719L781.051 377.759C798.813 385.228 816.957 391.357 835.506 396.139C832.075 378.292 827.269 361.359 821.051 345.339C805.233 305.569 781.719 272.64 750.083 245.699C719.728 219.613 683.389 200.797 640.637 188.395C617.862 182.387 593.475 178.137 567.306 175.646Z" fill="#FAFAFF"/>
<path d="M835.377 541.531C816.872 546.307 798.772 552.426 781.051 559.877L780.957 559.917L780.863 559.956C731.081 580.691 687.379 610.263 649.381 648.975L649.34 649.017C612.747 686.224 585.959 723.629 567.831 761.092C593.929 758.388 618.226 753.798 640.637 747.322C683.389 735.776 719.728 716.959 750.083 691.301C781.719 664.36 805.233 631.431 821.051 591.661C827.191 575.842 831.955 559.132 835.377 541.531Z" fill="#FAFAFF"/>
<path d="M370.989 764C351.166 722.564 323.915 684.425 288.778 649.5C247.462 608.435 203.584 579.034 157.2 560.132L156.987 560.045L156.774 559.956C152.202 558.052 147.611 556.235 143 554.506V764H370.989Z" fill="#FAFAFF"/>
</svg>
